STARTFONT 2.1
COMMENT $XConsortium: 8x13.bdf,v 1.13 92/04/02 14:25:48 gildea Exp $
COMMENT ""
COMMENT Characters above 127 designed and made by
COMMENT by Thomas Bagli (pyramid!pcsbst!tom@uunet.UU.NET)
COMMENT PCS Computer Systeme, West Germany
COMMENT ""
FONT -Misc-Fixed-Medium-R-Normal--13-120-75-75-C-80-ISO8859-1
SIZE 13 78 78
FONTBOUNDINGBOX 8 13 0 -2
STARTPROPERTIES 19
FONTNAME_REGISTRY ""
FOUNDRY "Misc"
FAMILY_NAME "Fixed"
WEIGHT_NAME "Medium"
SLANT "R"
SETWIDTH_NAME "Normal"
ADD_STYLE_NAME ""
PIXEL_SIZE 13
POINT_SIZE 120
RESOLUTION_X 75
RESOLUTION_Y 75
SPACING "C"
AVERAGE_WIDTH 80
CHARSET_REGISTRY "ISO8859"
CHARSET_ENCODING "1"
DEFAULT_CHAR 0
FONT_DESCENT 2
FONT_ASCENT 11
COPYRIGHT "Public domain font.  Share and enjoy."
ENDPROPERTIES
CHARS 224
STARTCHAR C0
ENCODING 0
SWIDTH 666 0
DWIDTH 8 0
BBX 8 13 0 -2
BITMAP
00
00
00
00
00
00
00
00
00
00
00
00
00
ENDCHAR
STARTCHAR C001
ENCODING 1
SWIDTH 666 0
DWIDTH 8 0
BBX 8 13 0 -2
BITMAP
00
00
00
10
38
7c
fe
7c
38
10
00
00
00
ENDCHAR
STARTCHAR C002
ENCODING 2
SWIDTH 666 0
DWIDTH 8 0
BBX 8 13 0 -2
BITMAP
00
aa
55
aa
55
aa
55
aa
55
aa
55
aa
55
ENDCHAR
STARTCHAR C003
ENCODING 3
SWIDTH 666 0
DWIDTH 8 0
BBX 8 13 0 -2
BITMAP
00
00
00
00
88
88
f8
88
88
3e
08
08
08
ENDCHAR
STARTCHAR C004
ENCODING 4
SWIDTH 666 0
DWIDTH 8 0
BBX 8 13 0 -2
BITMAP
00
00
00
00
f0
80
e0
80
9e
10
1c
10
10
ENDCHAR
STARTCHAR C005
ENCODING 5
SWIDTH 666 0
DWIDTH 8 0
BBX 8 13 0 -2
BITMAP
00
00
00
00
78
80
80
78
3c
22
3c
22
22
ENDCHAR
STARTCHAR C006
ENCODING 6
SWIDTH 666 0
DWIDTH 8 0
BBX 8 13 0 -2
BITMAP
00
00
00
00
80
80
80
f8
3e
20
3c
20
20
ENDCHAR
STARTCHAR C007
ENCODING 7
SWIDTH 666 0
DWIDTH 8 0
BBX 8 13 0 -2
BITMAP
00
00
38
44
44
38
00
00
00
00
00
00
00
ENDCHAR
STARTCHAR C010
ENCODING 8
SWIDTH 666 0
DWIDTH 8 0
BBX 8 13 0 -2
BITMAP
00
00
00
00
00
10
10
fe
10
10
fe
00
00
ENDCHAR
STARTCHAR C011
ENCODING 9
SWIDTH 666 0
DWIDTH 8 0
BBX 8 13 0 -2
BITMAP
00
00
00
00
88
c8
a8
98
88
20
20
20
3e
ENDCHAR
STARTCHAR C012
ENCODING 10
SWIDTH 666 0
DWIDTH 8 0
BBX 8 13 0 -2
BITMAP
00
00
00
00
88
88
50
20
3e
08
08
08
08
ENDCHAR
STARTCHAR C013
ENCODING 11
SWIDTH 666 0
DWIDTH 8 0
BBX 8 13 0 -2
BITMAP
10
10
10
10
10
10
10
f0
00
00
00
00
00
ENDCHAR
STARTCHAR C014
ENCODING 12
SWIDTH 666 0
DWIDTH 8 0
BBX 8 13 0 -2
BITMAP
00
00
00
00
00
00
00
f0
10
10
10
10
10
ENDCHAR
STARTCHAR C015
ENCODING 13
SWIDTH 666 0
DWIDTH 8 0
BBX 8 13 0 -2
BITMAP
00
00
00
00
00
00
00
1f
10
10
10
10
10
ENDCHAR
STARTCHAR C016
ENCODING 14
SWIDTH 666 0
DWIDTH 8 0
BBX 8 13 0 -2
BITMAP
10
10
10
10
10
10
10
1f
00
00
00
00
00
ENDCHAR
STARTCHAR C017
ENCODING 15
SWIDTH 666 0
DWIDTH 8 0
BBX 8 13 0 -2
BITMAP
10
10
10
10
10
10
10
ff
10
10
10
10
10
ENDCHAR
STARTCHAR C020
ENCODING 16
SWIDTH 666 0
DWIDTH 8 0
BBX 8 13 0 -2
BITMAP
00
00
00
ff
00
00
00
00
00
00
00
00
00
ENDCHAR
STARTCHAR C021
ENCODING 17
SWIDTH 666 0
DWIDTH 8 0
BBX 8 13 0 -2
BITMAP
00
00
00
00
00
ff
00
00
00
00
00
00
00
ENDCHAR
STARTCHAR C022
ENCODING 18
SWIDTH 666 0
DWIDTH 8 0
BBX 8 13 0 -2
BITMAP
00
00
00
00
00
00
00
ff
00
00
00
00
00
ENDCHAR
STARTCHAR C023
ENCODING 19
SWIDTH 666 0
DWIDTH 8 0
BBX 8 13 0 -2
BITMAP
00
00
00
00
00
00
00
00
00
ff
00
00
00
ENDCHAR
STARTCHAR C024
ENCODING 20
SWIDTH 666 0
DWIDTH 8 0
BBX 8 13 0 -2
BITMAP
00
00
00
00
00
00
00
00
00
00
00
ff
00
ENDCHAR
STARTCHAR C025
ENCODING 21
SWIDTH 666 0
DWIDTH 8 0
BBX 8 13 0 -2
BITMAP
10
10
10
10
10
10
10
1f
10
10
10
10
10
ENDCHAR
STARTCHAR C026
ENCODING 22
SWIDTH 666 0
DWIDTH 8 0
BBX 8 13 0 -2
BITMAP
10
10
10
10
10
10
10
f0
10
10
10
10
10
ENDCHAR
STARTCHAR C027
ENCODING 23
SWIDTH 666 0
DWIDTH 8 0
BBX 8 13 0 -2
BITMAP
10
10
10
10
10
10
10
ff
00
00
00
00
00
ENDCHAR
STARTCHAR C030
ENCODING 24
SWIDTH 666 0
DWIDTH 8 0
BBX 8 13 0 -2
BITMAP
00
00
00
00
00
00
00
ff
10
10
10
10
10
ENDCHAR
STARTCHAR C031
ENCODING 25
SWIDTH 666 0
DWIDTH 8 0
BBX 8 13 0 -2
BITMAP
10
10
10
10
10
10
10
10
10
10
10
10
10
ENDCHAR
STARTCHAR C032
ENCODING 26
SWIDTH 666 0
DWIDTH 8 0
BBX 8 13 0 -2
BITMAP
00
00
00
02
08
20
80
20
08
02
fe
00
00
ENDCHAR
STARTCHAR C033
ENCODING 27
SWIDTH 666 0
DWIDTH 8 0
BBX 8 13 0 -2
BITMAP
00
00
00
80
20
08
02
08
20
80
fe
00
00
ENDCHAR
STARTCHAR C034
ENCODING 28
SWIDTH 666 0
DWIDTH 8 0
BBX 8 13 0 -2
BITMAP
00
00
00
00
00
7e
24
24
24
24
44
00
00
ENDCHAR
STARTCHAR C035
ENCODING 29
SWIDTH 666 0
DWIDTH 8 0
BBX 8 13 0 -2
BITMAP
00
00
00
00
02
04
fe
10
fe
40
80
00
00
ENDCHAR
STARTCHAR C036
ENCODING 30
SWIDTH 666 0
DWIDTH 8 0
BBX 8 13 0 -2
BITMAP
00
00
1c
22
20
70
20
20
20
62
dc
00
00
ENDCHAR
STARTCHAR C037
ENCODING 31
SWIDTH 666 0
DWIDTH 8 0
BBX 8 13 0 -2
BITMAP
00
00
00
00
00
00
00
10
00
00
00
00
00
ENDCHAR
STARTCHAR C040
ENCODING 32
SWIDTH 666 0
DWIDTH 8 0
BBX 8 13 0 -2
BITMAP
00
00
00
00
00
00
00
00
00
00
00
00
00
ENDCHAR
STARTCHAR !
ENCODING 33
SWIDTH 666 0
DWIDTH 8 0
BBX 8 13 0 -2
BITMAP
00
00
10
10
10
10
10
10
10
00
10
00
00
ENDCHAR
STARTCHAR "
ENCODING 34
SWIDTH 666 0
DWIDTH 8 0
BBX 8 13 0 -2
BITMAP
00
00
24
24
24
00
00
00
00
00
00
00
00
ENDCHAR
STARTCHAR #
ENCODING 35
SWIDTH 666 0
DWIDTH 8 0
BBX 8 13 0 -2
BITMAP
00
00
00
24
24
7e
24
7e
24
24
00
00
00
ENDCHAR
STARTCHAR $
ENCODING 36
SWIDTH 666 0
DWIDTH 8 0
BBX 8 13 0 -2
BITMAP
00
00
00
10
3c
50
38
14
78
10
00
00
00
ENDCHAR
STARTCHAR %
ENCODING 37
SWIDTH 666 0
DWIDTH 8 0
BBX 8 13 0 -2
BITMAP
00
00
22
52
24
08
08
10
24
2a
44
00
00
ENDCHAR
STARTCHAR &
ENCODING 38
SWIDTH 666 0
DWIDTH 8 0
BBX 8 13 0 -2
BITMAP
00
00
00
00
30
48
48
30
4a
44
3a
00
00
ENDCHAR
STARTCHAR '
ENCODING 39
SWIDTH 666 0
DWIDTH 8 0
BBX 8 13 0 -2
BITMAP
00
00
38
30
40
00
00
00
00
00
00
00
00
ENDCHAR
STARTCHAR (
ENCODING 40
SWIDTH 666 0
DWIDTH 8 0
BBX 8 13 0 -2
BITMAP
00
00
04
08
08
10
10
10
08
08
04
00
00
ENDCHAR
STARTCHAR )
ENCODING 41
SWIDTH 666 0
DWIDTH 8 0
BBX 8 13 0 -2
BITMAP
00
00
20
10
10
08
08
08
10
10
20
00
00
ENDCHAR
STARTCHAR *
ENCODING 42
SWIDTH 666 0
DWIDTH 8 0
BBX 8 13 0 -2
BITMAP
00
00
00
00
24
18
7e
18
24
00
00
00
00
ENDCHAR
STARTCHAR +
ENCODING 43
SWIDTH 666 0
DWIDTH 8 0
BBX 8 13 0 -2
BITMAP
00
00
00
00
10
10
7c
10
10
00
00
00
00
ENDCHAR
STARTCHAR ,
ENCODING 44
SWIDTH 666 0
DWIDTH 8 0
BBX 8 13 0 -2
BITMAP
00
00
00
00
00
00
00
00
00
38
30
40
00
ENDCHAR
STARTCHAR -
ENCODING 45
SWIDTH 666 0
DWIDTH 8 0
BBX 8 13 0 -2
BITMAP
00
00
00
00
00
00
7e
00
00
00
00
00
00
ENDCHAR
STARTCHAR .
ENCODING 46
SWIDTH 666 0
DWIDTH 8 0
BBX 8 13 0 -2
BITMAP
00
00
00
00
00
00
00
00
00
10
38
10
00
ENDCHAR
STARTCHAR /
ENCODING 47
SWIDTH 666 0
DWIDTH 8 0
BBX 8 13 0 -2
BITMAP
00
00
02
02
04
08
10
20
40
80
80
00
00
ENDCHAR
STARTCHAR 0
ENCODING 48
SWIDTH 666 0
DWIDTH 8 0
BBX 8 13 0 -2
BITMAP
00
00
18
24
42
42
42
42
42
24
18
00
00
ENDCHAR
STARTCHAR 1
ENCODING 49
SWIDTH 666 0
DWIDTH 8 0
BBX 8 13 0 -2
BITMAP
00
00
10
30
50
10
10
10
10
10
7c
00
00
ENDCHAR
STARTCHAR 2
ENCODING 50
SWIDTH 666 0
DWIDTH 8 0
BBX 8 13 0 -2
BITMAP
00
00
3c
42
42
02
04
18
20
40
7e
00
00
ENDCHAR
STARTCHAR 3
ENCODING 51
SWIDTH 666 0
DWIDTH 8 0
BBX 8 13 0 -2
BITMAP
00
00
7e
02
04
08
1c
02
02
42
3c
00
00
ENDCHAR
STARTCHAR 4
ENCODING 52
SWIDTH 666 0
DWIDTH 8 0
BBX 8 13 0 -2
BITMAP
00
00
04
0c
14
24
44
44
7e
04
04
00
00
ENDCHAR
STARTCHAR 5
ENCODING 53
SWIDTH 666 0
DWIDTH 8 0
BBX 8 13 0 -2
BITMAP
00
00
7e
40
40
5c
62
02
02
42
3c
00
00
ENDCHAR
STARTCHAR 6
ENCODING 54
SWIDTH 666 0
DWIDTH 8 0
BBX 8 13 0 -2
BITMAP
00
00
1c
20
40
40
5c
62
42
42
3c
00
00
ENDCHAR
STARTCHAR 7
ENCODING 55
SWIDTH 666 0
DWIDTH 8 0
BBX 8 13 0 -2
BITMAP
00
00
7e
02
04
08
08
10
10
20
20
00
00
ENDCHAR
STARTCHAR 8
ENCODING 56
SWIDTH 666 0
DWIDTH 8 0
BBX 8 13 0 -2
BITMAP
00
00
3c
42
42
42
3c
42
42
42
3c
00
00
ENDCHAR
STARTCHAR 9
ENCODING 57
SWIDTH 666 0
DWIDTH 8 0
BBX 8 13 0 -2
BITMAP
00
00
3c
42
42
46
3a
02
02
04
38
00
00
ENDCHAR
STARTCHAR :
ENCODING 58
SWIDTH 666 0
DWIDTH 8 0
BBX 8 13 0 -2
BITMAP
00
00
00
00
10
38
10
00
00
10
38
10
00
ENDCHAR
STARTCHAR ;
ENCODING 59
SWIDTH 666 0
DWIDTH 8 0
BBX 8 13 0 -2
BITMAP
00
00
00
00
10
38
10
00
00
38
30
40
00
ENDCHAR
STARTCHAR <
ENCODING 60
SWIDTH 666 0
DWIDTH 8 0
BBX 8 13 0 -2
BITMAP
00
00
02
04
08
10
20
10
08
04
02
00
00
ENDCHAR
STARTCHAR =
ENCODING 61
SWIDTH 666 0
DWIDTH 8 0
BBX 8 13 0 -2
BITMAP
00
00
00
00
00
7e
00
00
7e
00
00
00
00
ENDCHAR
STARTCHAR >
ENCODING 62
SWIDTH 666 0
DWIDTH 8 0
BBX 8 13 0 -2
BITMAP
00
00
40
20
10
08
04
08
10
20
40
00
00
ENDCHAR
STARTCHAR ?
ENCODING 63
SWIDTH 666 0
DWIDTH 8 0
BBX 8 13 0 -2
BITMAP
00
00
3c
42
42
02
04
08
08
00
08
00
00
ENDCHAR
STARTCHAR @
ENCODING 64
SWIDTH 666 0
DWIDTH 8 0
BBX 8 13 0 -2
BITMAP
00
00
3c
42
42
4e
52
56
4a
40
3c
00
00
ENDCHAR
STARTCHAR A
ENCODING 65
SWIDTH 666 0
DWIDTH 8 0
BBX 8 13 0 -2
BITMAP
00
00
18
24
42
42
42
7e
42
42
42
00
00
ENDCHAR
STARTCHAR B
ENCODING 66
SWIDTH 666 0
DWIDTH 8 0
BBX 8 13 0 -2
BITMAP
00
00
fc
42
42
42
7c
42
42
42
fc
00
00
ENDCHAR
STARTCHAR C
ENCODING 67
SWIDTH 666 0
DWIDTH 8 0
BBX 8 13 0 -2
BITMAP
00
00
3c
42
40
40
40
40
40
42
3c
00
00
ENDCHAR
STARTCHAR D
ENCODING 68
SWIDTH 666 0
DWIDTH 8 0
BBX 8 13 0 -2
BITMAP
00
00
fc
42
42
42
42
42
42
42
fc
00
00
ENDCHAR
STARTCHAR E
ENCODING 69
SWIDTH 666 0
DWIDTH 8 0
BBX 8 13 0 -2
BITMAP
00
00
7e
40
40
40
78
40
40
40
7e
00
00
ENDCHAR
STARTCHAR F
ENCODING 70
SWIDTH 666 0
DWIDTH 8 0
BBX 8 13 0 -2
BITMAP
00
00
7e
40
40
40
78
40
40
40
40
00
00
ENDCHAR
STARTCHAR G
ENCODING 71
SWIDTH 666 0
DWIDTH 8 0
BBX 8 13 0 -2
BITMAP
00
00
3c
42
40
40
40
4e
42
46
3a
00
00
ENDCHAR
STARTCHAR H
ENCODING 72
SWIDTH 666 0
DWIDTH 8 0
BBX 8 13 0 -2
BITMAP
00
00
42
42
42
42
7e
42
42
42
42
00
00
ENDCHAR
STARTCHAR I
ENCODING 73
SWIDTH 666 0
DWIDTH 8 0
BBX 8 13 0 -2
BITMAP
00
00
7c
10
10
10
10
10
10
10
7c
00
00
ENDCHAR
STARTCHAR J
ENCODING 74
SWIDTH 666 0
DWIDTH 8 0
BBX 8 13 0 -2
BITMAP
00
00
1e
04
04
04
04
04
04
44
38
00
00
ENDCHAR
STARTCHAR K
ENCODING 75
SWIDTH 666 0
DWIDTH 8 0
BBX 8 13 0 -2
BITMAP
00
00
42
44
48
50
60
50
48
44
42
00
00
ENDCHAR
STARTCHAR L
ENCODING 76
SWIDTH 666 0
DWIDTH 8 0
BBX 8 13 0 -2
BITMAP
00
00
40
40
40
40
40
40
40
40
7e
00
00
ENDCHAR
STARTCHAR M
ENCODING 77
SWIDTH 666 0
DWIDTH 8 0
BBX 8 13 0 -2
BITMAP
00
00
82
82
c6
aa
92
92
82
82
82
00
00
ENDCHAR
STARTCHAR N
ENCODING 78
SWIDTH 666 0
DWIDTH 8 0
BBX 8 13 0 -2
BITMAP
00
00
42
42
62
52
4a
46
42
42
42
00
00
ENDCHAR
STARTCHAR O
ENCODING 79
SWIDTH 666 0
DWIDTH 8 0
BBX 8 13 0 -2
BITMAP
00
00
3c
42
42
42
42
42
42
42
3c
00
00
ENDCHAR
STARTCHAR P
ENCODING 80
SWIDTH 666 0
DWIDTH 8 0
BBX 8 13 0 -2
BITMAP
00
00
7c
42
42
42
7c
40
40
40
40
00
00
ENDCHAR
STARTCHAR Q
ENCODING 81
SWIDTH 666 0
DWIDTH 8 0
BBX 8 13 0 -2
BITMAP
00
00
3c
42
42
42
42
42
52
4a
3c
02
00
ENDCHAR
STARTCHAR R
ENCODING 82
SWIDTH 666 0
DWIDTH 8 0
BBX 8 13 0 -2
BITMAP
00
00
7c
42
42
42
7c
50
48
44
42
00
00
ENDCHAR
STARTCHAR S
ENCODING 83
SWIDTH 666 0
DWIDTH 8 0
BBX 8 13 0 -2
BITMAP
00
00
3c
42
40
40
3c
02
02
42
3c
00
00
ENDCHAR
STARTCHAR T
ENCODING 84
SWIDTH 666 0
DWIDTH 8 0
BBX 8 13 0 -2
BITMAP
00
00
fe
10
10
10
10
10
10
10
10
00
00
ENDCHAR
STARTCHAR U
ENCODING 85
SWIDTH 666 0
DWIDTH 8 0
BBX 8 13 0 -2
BITMAP
00
00
42
42
42
42
42
42
42
42
3c
00
00
ENDCHAR
STARTCHAR V
ENCODING 86
SWIDTH 666 0
DWIDTH 8 0
BBX 8 13 0 -2
BITMAP
00
00
82
82
44
44
44
28
28
28
10
00
00
ENDCHAR
STARTCHAR W
ENCODING 87
SWIDTH 666 0
DWIDTH 8 0
BBX 8 13 0 -2
BITMAP
00
00
82
82
82
82
92
92
92
aa
44
00
00
ENDCHAR
STARTCHAR X
ENCODING 88
SWIDTH 666 0
DWIDTH 8 0
BBX 8 13 0 -2
BITMAP
00
00
82
82
44
28
10
28
44
82
82
00
00
ENDCHAR
STARTCHAR Y
ENCODING 89
SWIDTH 666 0
DWIDTH 8 0
BBX 8 13 0 -2
BITMAP
00
00
82
82
44
28
10
10
10
10
10
00
00
ENDCHAR
STARTCHAR Z
ENCODING 90
SWIDTH 666 0
DWIDTH 8 0
BBX 8 13 0 -2
BITMAP
00
00
7e
02
04
08
10
20
40
40
7e
00
00
ENDCHAR
STARTCHAR [
ENCODING 91
SWIDTH 666 0
DWIDTH 8 0
BBX 8 13 0 -2
BITMAP
00
00
3c
20
20
20
20
20
20
20
3c
00
00
ENDCHAR
STARTCHAR \
ENCODING 92
SWIDTH 666 0
DWIDTH 8 0
BBX 8 13 0 -2
BITMAP
00
00
80
80
40
20
10
08
04
02
02
00
00
ENDCHAR
STARTCHAR ]
ENCODING 93
SWIDTH 666 0
DWIDTH 8 0
BBX 8 13 0 -2
BITMAP
00
00
78
08
08
08
08
08
08
08
78
00
00
ENDCHAR
STARTCHAR ^
ENCODING 94
SWIDTH 666 0
DWIDTH 8 0
BBX 8 13 0 -2
BITMAP
00
00
10
28
44
00
00
00
00
00
00
00
00
ENDCHAR
STARTCHAR _
ENCODING 95
SWIDTH 666 0
DWIDTH 8 0
BBX 8 13 0 -2
BITMAP
00
00
00
00
00
00
00
00
00
00
00
fe
00
ENDCHAR
STARTCHAR `
ENCODING 96
SWIDTH 666 0
DWIDTH 8 0
BBX 8 13 0 -2
BITMAP
00
00
38
18
04
00
00
00
00
00
00
00
00
ENDCHAR
STARTCHAR a
ENCODING 97
SWIDTH 666 0
DWIDTH 8 0
BBX 8 13 0 -2
BITMAP
00
00
00
00
00
3c
02
3e
42
46
3a
00
00
ENDCHAR
STARTCHAR b
ENCODING 98
SWIDTH 666 0
DWIDTH 8 0
BBX 8 13 0 -2
BITMAP
00
00
40
40
40
5c
62
42
42
62
5c
00
00
ENDCHAR
STARTCHAR c
ENCODING 99
SWIDTH 666 0
DWIDTH 8 0
BBX 8 13 0 -2
BITMAP
00
00
00
00
00
3c
42
40
40
42
3c
00
00
ENDCHAR
STARTCHAR d
ENCODING 1
SWIDTH 666 0
DWIDTH 8 0
BBX 8 13 0 -2
BITMAP
00
00
02
02
02
3a
46
42
42
46
3a
00
00
ENDCHAR
STARTCHAR e
ENCODING 101
SWIDTH 666 0
DWIDTH 8 0
BBX 8 13 0 -2
BITMAP
00
00
00
00
00
3c
42
7e
40
42
3c
00
00
ENDCHAR
STARTCHAR f
ENCODING 102
SWIDTH 666 0
DWIDTH 8 0
BBX 8 13 0 -2
BITMAP
00
00
1c
22
20
20
7c
20
20
20
20
00
00
ENDCHAR
STARTCHAR g
ENCODING 103
SWIDTH 666 0
DWIDTH 8 0
BBX 8 13 0 -2
BITMAP
00
00
00
00
00
3a
44
44
38
40
3c
42
3c
ENDCHAR
STARTCHAR h
ENCODING 104
SWIDTH 666 0
DWIDTH 8 0
BBX 8 13 0 -2
BITMAP
00
00
40
40
40
5c
62
42
42
42
42
00
00
ENDCHAR
STARTCHAR i
ENCODING 105
SWIDTH 666 0
DWIDTH 8 0
BBX 8 13 0 -2
BITMAP
00
00
00
10
00
30
10
10
10
10
7c
00
00
ENDCHAR
STARTCHAR j
ENCODING 106
SWIDTH 666 0
DWIDTH 8 0
BBX 8 13 0 -2
BITMAP
00
00
00
04
00
0c
04
04
04
04
44
44
38
ENDCHAR
STARTCHAR k
ENCODING 107
SWIDTH 666 0
DWIDTH 8 0
BBX 8 13 0 -2
BITMAP
00
00
40
40
40
44
48
70
48
44
42
00
00
ENDCHAR
STARTCHAR l
ENCODING 108
SWIDTH 666 0
DWIDTH 8 0
BBX 8 13 0 -2
BITMAP
00
00
30
10
10
10
10
10
10
10
7c
00
00
ENDCHAR
STARTCHAR m
ENCODING 109
SWIDTH 666 0
DWIDTH 8 0
BBX 8 13 0 -2
BITMAP
00
00
00
00
00
ec
92
92
92
92
82
00
00
ENDCHAR
STARTCHAR n
ENCODING 110
SWIDTH 666 0
DWIDTH 8 0
BBX 8 13 0 -2
BITMAP
00
00
00
00
00
5c
62
42
42
42
42
00
00
ENDCHAR
STARTCHAR o
ENCODING 111
SWIDTH 666 0
DWIDTH 8 0
BBX 8 13 0 -2
BITMAP
00
00
00
00
00
3c
42
42
42
42
3c
00
00
ENDCHAR
STARTCHAR p
ENCODING 112
SWIDTH 666 0
DWIDTH 8 0
BBX 8 13 0 -2
BITMAP
00
00
00
00
00
5c
62
42
62
5c
40
40
40
ENDCHAR
STARTCHAR q
ENCODING 113
SWIDTH 666 0
DWIDTH 8 0
BBX 8 13 0 -2
BITMAP
00
00
00
00
00
3a
46
42
46
3a
02
02
02
ENDCHAR
STARTCHAR r
ENCODING 114
SWIDTH 666 0
DWIDTH 8 0
BBX 8 13 0 -2
BITMAP
00
00
00
00
00
5c
22
20
20
20
20
00
00
ENDCHAR
STARTCHAR s
ENCODING 115
SWIDTH 666 0
DWIDTH 8 0
BBX 8 13 0 -2
BITMAP
00
00
00
00
00
3c
42
30
0c
42
3c
00
00
ENDCHAR
STARTCHAR t
ENCODING 116
SWIDTH 666 0
DWIDTH 8 0
BBX 8 13 0 -2
BITMAP
00
00
00
20
20
7c
20
20
20
22
1c
00
00
ENDCHAR
STARTCHAR u
ENCODING 117
SWIDTH 666 0
DWIDTH 8 0
BBX 8 13 0 -2
BITMAP
00
00
00
00
00
44
44
44
44
44
3a
00
00
ENDCHAR
STARTCHAR v
ENCODING 118
SWIDTH 666 0
DWIDTH 8 0
BBX 8 13 0 -2
BITMAP
00
00
00
00
00
44
44
44
28
28
10
00
00
ENDCHAR
STARTCHAR w
ENCODING 119
SWIDTH 666 0
DWIDTH 8 0
BBX 8 13 0 -2
BITMAP
00
00
00
00
00
82
82
92
92
aa
44
00
00
ENDCHAR
STARTCHAR x
ENCODING 120
SWIDTH 666 0
DWIDTH 8 0
BBX 8 13 0 -2
BITMAP
00
00
00
00
00
42
24
18
18
24
42
00
00
ENDCHAR
STARTCHAR y
ENCODING 121
SWIDTH 666 0
DWIDTH 8 0
BBX 8 13 0 -2
BITMAP
00
00
00
00
00
42
42
42
46
3a
02
42
3c
ENDCHAR
STARTCHAR z
ENCODING 122
SWIDTH 666 0
DWIDTH 8 0
BBX 8 13 0 -2
BITMAP
00
00
00
00
00
7e
04
08
10
20
7e
00
00
ENDCHAR
STARTCHAR {
ENCODING 123
SWIDTH 666 0
DWIDTH 8 0
BBX 8 13 0 -2
BITMAP
00
00
0e
10
10
08
30
08
10
10
0e
00
00
ENDCHAR
STARTCHAR |
ENCODING 124
SWIDTH 666 0
DWIDTH 8 0
BBX 8 13 0 -2
BITMAP
00
00
10
10
10
10
10
10
10
10
10
00
00
ENDCHAR
STARTCHAR }
ENCODING 125
SWIDTH 666 0
DWIDTH 8 0
BBX 8 13 0 -2
BITMAP
00
00
70
08
08
10
0c
10
08
08
70
00
00
ENDCHAR
STARTCHAR ~
ENCODING 126
SWIDTH 666 0
DWIDTH 8 0
BBX 8 13 0 -2
BITMAP
00
00
24
54
48
00
00
00
00
00
00
00
00
ENDCHAR
STARTCHAR C177
ENCODING 127
SWIDTH 666 0
DWIDTH 8 0
BBX 8 13 0 -2
BITMAP
00
00
00
00
00
00
00
00
00
00
00
00
00
ENDCHAR
STARTCHAR 00a0
ENCODING 160
SWIDTH 666 0
DWIDTH 8 0
BBX 8 13 0 -2
BITMAP
00
00
00
00
00
00
00
00
00
00
00
00
00
ENDCHAR
STARTCHAR 00a1
ENCODING 161
SWIDTH 666 0
DWIDTH 8 0
BBX 8 13 0 -2
BITMAP
00
00
10
00
10
10
10
10
10
10
10
00
00
ENDCHAR
STARTCHAR 00a2
ENCODING 162
SWIDTH 666 0
DWIDTH 8 0
BBX 8 13 0 -2
BITMAP
00
00
10
38
54
50
50
54
38
10
00
00
00
ENDCHAR
STARTCHAR 00a3
ENCODING 163
SWIDTH 666 0
DWIDTH 8 0
BBX 8 13 0 -2
BITMAP
00
00
1c
22
20
70
20
20
20
62
dc
00
00
ENDCHAR
STARTCHAR 00a4
ENCODING 164
SWIDTH 666 0
DWIDTH 8 0
BBX 8 13 0 -2
BITMAP
00
00
00
00
42
3c
24
24
3c
42
00
00
00
ENDCHAR
STARTCHAR 00a5
ENCODING 165
SWIDTH 666 0
DWIDTH 8 0
BBX 8 13 0 -2
BITMAP
00
00
82
82
44
28
7c
10
7c
10
10
00
00
ENDCHAR
STARTCHAR 00a6
ENCODING 166
SWIDTH 666 0
DWIDTH 8 0
BBX 8 13 0 -2
BITMAP
00
00
10
10
10
10
00
10
10
10
10
00
00
ENDCHAR
STARTCHAR 00a7
ENCODING 167
SWIDTH 666 0
DWIDTH 8 0
BBX 8 13 0 -2
BITMAP
00
18
24
20
18
24
24
18
04
24
18
00
00
ENDCHAR
STARTCHAR 00a8
ENCODING 168
SWIDTH 666 0
DWIDTH 8 0
BBX 8 13 0 -2
BITMAP
00
00
6c
00
00
00
00
00
00
00
00
00
00
ENDCHAR
STARTCHAR 00a9
ENCODING 169
SWIDTH 666 0
DWIDTH 8 0
BBX 8 13 0 -2
BITMAP
00
38
44
92
aa
a2
aa
92
44
38
00
00
00
ENDCHAR
STARTCHAR 00aa
ENCODING 170
SWIDTH 666 0
DWIDTH 8 0
BBX 8 13 0 -2
BITMAP
00
00
38
04
3c
44
3c
00
7c
00
00
00
00
ENDCHAR
STARTCHAR 00ab
ENCODING 171
SWIDTH 666 0
DWIDTH 8 0
BBX 8 13 0 -2
BITMAP
00
00
00
12
24
48
90
48
24
12
00
00
00
ENDCHAR
STARTCHAR 00ac
ENCODING 172
SWIDTH 666 0
DWIDTH 8 0
BBX 8 13 0 -2
BITMAP
00
00
00
00
00
00
7e
02
02
02
00
00
00
ENDCHAR
STARTCHAR 00ad
ENCODING 173
SWIDTH 666 0
DWIDTH 8 0
BBX 8 13 0 -2
BITMAP
00
00
00
00
00
00
7e
00
00
00
00
00
00
ENDCHAR
STARTCHAR 00ae
ENCODING 174
SWIDTH 666 0
DWIDTH 8 0
BBX 8 13 0 -2
BITMAP
00
38
44
92
aa
aa
b2
aa
44
38
00
00
00
ENDCHAR
STARTCHAR 00af
ENCODING 175
SWIDTH 666 0
DWIDTH 8 0
BBX 8 13 0 -2
BITMAP
00
00
7e
00
00
00
00
00
00
00
00
00
00
ENDCHAR
STARTCHAR 00b0
ENCODING 176
SWIDTH 666 0
DWIDTH 8 0
BBX 8 13 0 -2
BITMAP
00
00
18
24
24
18
00
00
00
00
00
00
00
ENDCHAR
STARTCHAR 00b1
ENCODING 177
SWIDTH 666 0
DWIDTH 8 0
BBX 8 13 0 -2
BITMAP
00
00
00
10
10
7c
10
10
00
7c
00
00
00
ENDCHAR
STARTCHAR 00b2
ENCODING 178
SWIDTH 666 0
DWIDTH 8 0
BBX 8 13 0 -2
BITMAP
00
30
48
08
30
40
78
00
00
00
00
00
00
ENDCHAR
STARTCHAR 00b3
ENCODING 179
SWIDTH 666 0
DWIDTH 8 0
BBX 8 13 0 -2
BITMAP
00
30
48
10
08
48
30
00
00
00
00
00
00
ENDCHAR
STARTCHAR 00b4
ENCODING 180
SWIDTH 666 0
DWIDTH 8 0
BBX 8 13 0 -2
BITMAP
00
08
10
00
00
00
00
00
00
00
00
00
00
ENDCHAR
STARTCHAR 00b5
ENCODING 181
SWIDTH 666 0
DWIDTH 8 0
BBX 8 13 0 -2
BITMAP
00
00
00
00
00
42
42
42
42
66
5a
40
00
ENDCHAR
STARTCHAR 00b6
ENCODING 182
SWIDTH 666 0
DWIDTH 8 0
BBX 8 13 0 -2
BITMAP
00
00
3e
74
74
74
34
14
14
14
14
00
00
ENDCHAR
STARTCHAR 00b7
ENCODING 183
SWIDTH 666 0
DWIDTH 8 0
BBX 8 13 0 -2
BITMAP
00
00
00
00
00
00
18
00
00
00
00
00
00
ENDCHAR
STARTCHAR 00b8
ENCODING 184
SWIDTH 666 0
DWIDTH 8 0
BBX 8 13 0 -2
BITMAP
00
00
00
00
00
00
00
00
00
00
00
08
18
ENDCHAR
STARTCHAR 00b9
ENCODING 185
SWIDTH 666 0
DWIDTH 8 0
BBX 8 13 0 -2
BITMAP
00
20
60
20
20
20
70
00
00
00
00
00
00
ENDCHAR
STARTCHAR 00ba
ENCODING 186
SWIDTH 666 0
DWIDTH 8 0
BBX 8 13 0 -2
BITMAP
00
00
30
48
48
30
00
78
00
00
00
00
00
ENDCHAR
STARTCHAR 00bb
ENCODING 187
SWIDTH 666 0
DWIDTH 8 0
BBX 8 13 0 -2
BITMAP
00
00
00
90
48
24
12
24
48
90
00
00
00
ENDCHAR
STARTCHAR 00bc
ENCODING 188
SWIDTH 666 0
DWIDTH 8 0
BBX 8 13 0 -2
BITMAP
00
40
c0
40
40
42
e6
0a
12
1a
06
00
00
ENDCHAR
STARTCHAR 00bd
ENCODING 189
SWIDTH 666 0
DWIDTH 8 0
BBX 8 13 0 -2
BITMAP
00
40
c0
40
40
4c
f2
02
0c
10
1e
00
00
ENDCHAR
STARTCHAR 00be
ENCODING 190
SWIDTH 666 0
DWIDTH 8 0
BBX 8 13 0 -2
BITMAP
00
60
90
20
10
92
66
0a
12
1a
06
00
00
ENDCHAR
STARTCHAR 00bf
ENCODING 191
SWIDTH 666 0
DWIDTH 8 0
BBX 8 13 0 -2
BITMAP
00
00
10
00
10
10
20
40
42
42
3c
00
00
ENDCHAR
STARTCHAR 00c0
ENCODING 192
SWIDTH 666 0
DWIDTH 8 0
BBX 8 13 0 -2
BITMAP
00
10
08
00
18
24
42
42
7e
42
42
00
00
ENDCHAR
STARTCHAR 00c1
ENCODING 193
SWIDTH 666 0
DWIDTH 8 0
BBX 8 13 0 -2
BITMAP
00
08
10
00
18
24
42
42
7e
42
42
00
00
ENDCHAR
STARTCHAR 00c2
ENCODING 194
SWIDTH 666 0
DWIDTH 8 0
BBX 8 13 0 -2
BITMAP
00
18
24
00
18
24
42
42
7e
42
42
00
00
ENDCHAR
STARTCHAR 00c3
ENCODING 195
SWIDTH 666 0
DWIDTH 8 0
BBX 8 13 0 -2
BITMAP
00
14
28
00
18
24
42
42
7e
42
42
00
00
ENDCHAR
STARTCHAR 00c4
ENCODING 196
SWIDTH 666 0
DWIDTH 8 0
BBX 8 13 0 -2
BITMAP
00
24
24
00
18
24
42
42
7e
42
42
00
00
ENDCHAR
STARTCHAR 00c5
ENCODING 197
SWIDTH 666 0
DWIDTH 8 0
BBX 8 13 0 -2
BITMAP
00
18
24
18
18
24
42
42
7e
42
42
00
00
ENDCHAR
STARTCHAR 00c6
ENCODING 198
SWIDTH 666 0
DWIDTH 8 0
BBX 8 13 0 -2
BITMAP
00
00
6e
90
90
90
9c
f0
90
90
9e
00
00
ENDCHAR
STARTCHAR 00c7
ENCODING 199
SWIDTH 666 0
DWIDTH 8 0
BBX 8 13 0 -2
BITMAP
00
00
3c
42
40
40
40
40
40
42
3c
08
10
ENDCHAR
STARTCHAR 00c8
ENCODING 2
SWIDTH 666 0
DWIDTH 8 0
BBX 8 13 0 -2
BITMAP
00
10
08
00
7e
40
40
78
40
40
7e
00
00
ENDCHAR
STARTCHAR 00c9
ENCODING 201
SWIDTH 666 0
DWIDTH 8 0
BBX 8 13 0 -2
BITMAP
00
08
10
00
7e
40
40
78
40
40
7e
00
00
ENDCHAR
STARTCHAR 00ca
ENCODING 202
SWIDTH 666 0
DWIDTH 8 0
BBX 8 13 0 -2
BITMAP
00
18
24
00
7e
40
40
78
40
40
7e
00
00
ENDCHAR
STARTCHAR 00cb
ENCODING 203
SWIDTH 666 0
DWIDTH 8 0
BBX 8 13 0 -2
BITMAP
00
24
24
00
7e
40
40
78
40
40
7e
00
00
ENDCHAR
STARTCHAR 00cc
ENCODING 204
SWIDTH 666 0
DWIDTH 8 0
BBX 8 13 0 -2
BITMAP
00
10
08
00
7c
10
10
10
10
10
7c
00
00
ENDCHAR
STARTCHAR 00cd
ENCODING 205
SWIDTH 666 0
DWIDTH 8 0
BBX 8 13 0 -2
BITMAP
00
08
10
00
7c
10
10
10
10
10
7c
00
00
ENDCHAR
STARTCHAR 00ce
ENCODING 206
SWIDTH 666 0
DWIDTH 8 0
BBX 8 13 0 -2
BITMAP
00
18
24
00
7c
10
10
10
10
10
7c
00
00
ENDCHAR
STARTCHAR 00cf
ENCODING 207
SWIDTH 666 0
DWIDTH 8 0
BBX 8 13 0 -2
BITMAP
00
28
28
00
7c
10
10
10
10
10
7c
00
00
ENDCHAR
STARTCHAR 00d0
ENCODING 208
SWIDTH 666 0
DWIDTH 8 0
BBX 8 13 0 -2
BITMAP
00
00
fc
42
42
42
e2
42
42
42
fc
00
00
ENDCHAR
STARTCHAR 00d1
ENCODING 209
SWIDTH 666 0
DWIDTH 8 0
BBX 8 13 0 -2
BITMAP
00
14
28
00
82
c2
a2
92
8a
86
82
00
00
ENDCHAR
STARTCHAR 00d2
ENCODING 210
SWIDTH 666 0
DWIDTH 8 0
BBX 8 13 0 -2
BITMAP
00
10
08
00
7c
82
82
82
82
82
7c
00
00
ENDCHAR
STARTCHAR 00d3
ENCODING 211
SWIDTH 666 0
DWIDTH 8 0
BBX 8 13 0 -2
BITMAP
00
08
10
00
7c
82
82
82
82
82
7c
00
00
ENDCHAR
STARTCHAR 00d4
ENCODING 212
SWIDTH 666 0
DWIDTH 8 0
BBX 8 13 0 -2
BITMAP
00
18
24
00
7c
82
82
82
82
82
7c
00
00
ENDCHAR
STARTCHAR 00d5
ENCODING 213
SWIDTH 666 0
DWIDTH 8 0
BBX 8 13 0 -2
BITMAP
00
14
28
00
7c
82
82
82
82
82
7c
00
00
ENDCHAR
STARTCHAR 00d6
ENCODING 214
SWIDTH 666 0
DWIDTH 8 0
BBX 8 13 0 -2
BITMAP
00
28
28
00
7c
82
82
82
82
82
7c
00
00
ENDCHAR
STARTCHAR 00d7
ENCODING 215
SWIDTH 666 0
DWIDTH 8 0
BBX 8 13 0 -2
BITMAP
00
00
00
00
42
24
18
18
24
42
00
00
00
ENDCHAR
STARTCHAR 00d8
ENCODING 216
SWIDTH 666 0
DWIDTH 8 0
BBX 8 13 0 -2
BITMAP
00
02
3c
46
4a
4a
52
52
52
62
3c
40
00
ENDCHAR
STARTCHAR 00d9
ENCODING 217
SWIDTH 666 0
DWIDTH 8 0
BBX 8 13 0 -2
BITMAP
00
10
08
00
42
42
42
42
42
42
3c
00
00
ENDCHAR
STARTCHAR 00da
ENCODING 218
SWIDTH 666 0
DWIDTH 8 0
BBX 8 13 0 -2
BITMAP
00
08
10
00
42
42
42
42
42
42
3c
00
00
ENDCHAR
STARTCHAR 00db
ENCODING 219
SWIDTH 666 0
DWIDTH 8 0
BBX 8 13 0 -2
BITMAP
00
18
24
00
42
42
42
42
42
42
3c
00
00
ENDCHAR
STARTCHAR 00dc
ENCODING 220
SWIDTH 666 0
DWIDTH 8 0
BBX 8 13 0 -2
BITMAP
00
24
24
00
42
42
42
42
42
42
3c
00
00
ENDCHAR
STARTCHAR 00dd
ENCODING 221
SWIDTH 666 0
DWIDTH 8 0
BBX 8 13 0 -2
BITMAP
00
08
10
00
44
44
28
10
10
10
10
00
00
ENDCHAR
STARTCHAR 00de
ENCODING 222
SWIDTH 666 0
DWIDTH 8 0
BBX 8 13 0 -2
BITMAP
00
00
40
7c
42
42
42
7c
40
40
40
00
00
ENDCHAR
STARTCHAR 00df
ENCODING 223
SWIDTH 666 0
DWIDTH 8 0
BBX 8 13 0 -2
BITMAP
00
00
00
3c
42
42
7c
42
42
62
5c
40
00
ENDCHAR
STARTCHAR 00e0
ENCODING 224
SWIDTH 666 0
DWIDTH 8 0
BBX 8 13 0 -2
BITMAP
00
10
08
00
00
3c
02
3e
42
46
3a
00
00
ENDCHAR
STARTCHAR 00e1
ENCODING 225
SWIDTH 666 0
DWIDTH 8 0
BBX 8 13 0 -2
BITMAP
00
08
10
00
00
3c
02
3e
42
46
3a
00
00
ENDCHAR
STARTCHAR 00e2
ENCODING 226
SWIDTH 666 0
DWIDTH 8 0
BBX 8 13 0 -2
BITMAP
00
18
24
00
00
3c
02
3e
42
46
3a
00
00
ENDCHAR
STARTCHAR 00e3
ENCODING 227
SWIDTH 666 0
DWIDTH 8 0
BBX 8 13 0 -2
BITMAP
00
14
28
00
00
3c
02
3e
42
46
3a
00
00
ENDCHAR
STARTCHAR 00e4
ENCODING 228
SWIDTH 666 0
DWIDTH 8 0
BBX 8 13 0 -2
BITMAP
00
24
24
00
00
3c
02
3e
42
46
3a
00
00
ENDCHAR
STARTCHAR 00e5
ENCODING 229
SWIDTH 666 0
DWIDTH 8 0
BBX 8 13 0 -2
BITMAP
00
18
24
18
00
3c
02
3e
42
46
3a
00
00
ENDCHAR
STARTCHAR 00e6
ENCODING 230
SWIDTH 666 0
DWIDTH 8 0
BBX 8 13 0 -2
BITMAP
00
00
00
00
00
6c
12
7c
90
92
6c
00
00
ENDCHAR
STARTCHAR 00e7
ENCODING 231
SWIDTH 666 0
DWIDTH 8 0
BBX 8 13 0 -2
BITMAP
00
00
00
00
00
3c
42
40
40
42
3c
08
10
ENDCHAR
STARTCHAR 00e8
ENCODING 232
SWIDTH 666 0
DWIDTH 8 0
BBX 8 13 0 -2
BITMAP
00
10
08
00
00
3c
42
7e
40
42
3c
00
00
ENDCHAR
STARTCHAR 00e9
ENCODING 233
SWIDTH 666 0
DWIDTH 8 0
BBX 8 13 0 -2
BITMAP
00
08
10
00
00
3c
42
7e
40
42
3c
00
00
ENDCHAR
STARTCHAR 00ea
ENCODING 234
SWIDTH 666 0
DWIDTH 8 0
BBX 8 13 0 -2
BITMAP
00
18
24
00
00
3c
42
7e
40
42
3c
00
00
ENDCHAR
STARTCHAR 00eb
ENCODING 235
SWIDTH 666 0
DWIDTH 8 0
BBX 8 13 0 -2
BITMAP
00
24
24
00
00
3c
42
7e
40
42
3c
00
00
ENDCHAR
STARTCHAR 00ec
ENCODING 236
SWIDTH 666 0
DWIDTH 8 0
BBX 8 13 0 -2
BITMAP
00
20
10
00
00
30
10
10
10
10
7c
00
00
ENDCHAR
STARTCHAR 00ed
ENCODING 237
SWIDTH 666 0
DWIDTH 8 0
BBX 8 13 0 -2
BITMAP
00
10
20
00
00
30
10
10
10
10
7c
00
00
ENDCHAR
STARTCHAR 00ee
ENCODING 238
SWIDTH 666 0
DWIDTH 8 0
BBX 8 13 0 -2
BITMAP
00
30
48
00
00
30
10
10
10
10
7c
00
00
ENDCHAR
STARTCHAR 00ef
ENCODING 239
SWIDTH 666 0
DWIDTH 8 0
BBX 8 13 0 -2
BITMAP
00
28
28
00
00
30
10
10
10
10
7c
00
00
ENDCHAR
STARTCHAR 00f0
ENCODING 240
SWIDTH 666 0
DWIDTH 8 0
BBX 8 13 0 -2
BITMAP
00
24
18
28
04
3c
42
42
42
42
3c
00
00
ENDCHAR
STARTCHAR 00f1
ENCODING 241
SWIDTH 666 0
DWIDTH 8 0
BBX 8 13 0 -2
BITMAP
00
14
28
00
00
5c
62
42
42
42
42
00
00
ENDCHAR
STARTCHAR 00f2
ENCODING 242
SWIDTH 666 0
DWIDTH 8 0
BBX 8 13 0 -2
BITMAP
00
10
08
00
00
3c
42
42
42
42
3c
00
00
ENDCHAR
STARTCHAR 00f3
ENCODING 243
SWIDTH 666 0
DWIDTH 8 0
BBX 8 13 0 -2
BITMAP
00
08
10
00
00
3c
42
42
42
42
3c
00
00
ENDCHAR
STARTCHAR 00f4
ENCODING 244
SWIDTH 666 0
DWIDTH 8 0
BBX 8 13 0 -2
BITMAP
00
18
24
00
00
3c
42
42
42
42
3c
00
00
ENDCHAR
STARTCHAR 00f5
ENCODING 245
SWIDTH 666 0
DWIDTH 8 0
BBX 8 13 0 -2
BITMAP
00
14
28
00
00
3c
42
42
42
42
3c
00
00
ENDCHAR
STARTCHAR 00f6
ENCODING 246
SWIDTH 666 0
DWIDTH 8 0
BBX 8 13 0 -2
BITMAP
00
24
24
00
00
3c
42
42
42
42
3c
00
00
ENDCHAR
STARTCHAR 00f7
ENCODING 247
SWIDTH 666 0
DWIDTH 8 0
BBX 8 13 0 -2
BITMAP
00
00
00
10
10
00
7c
00
10
10
00
00
00
ENDCHAR
STARTCHAR 00f8
ENCODING 248
SWIDTH 666 0
DWIDTH 8 0
BBX 8 13 0 -2
BITMAP
00
00
00
00
02
3c
46
4a
52
62
3c
40
00
ENDCHAR
STARTCHAR 00f9
ENCODING 249
SWIDTH 666 0
DWIDTH 8 0
BBX 8 13 0 -2
BITMAP
00
10
08
00
00
44
44
44
44
44
3a
00
00
ENDCHAR
STARTCHAR 00fa
ENCODING 250
SWIDTH 666 0
DWIDTH 8 0
BBX 8 13 0 -2
BITMAP
00
08
10
00
00
44
44
44
44
44
3a
00
00
ENDCHAR
STARTCHAR 00fb
ENCODING 251
SWIDTH 666 0
DWIDTH 8 0
BBX 8 13 0 -2
BITMAP
00
18
24
00
00
44
44
44
44
44
3a
00
00
ENDCHAR
STARTCHAR 00fc
ENCODING 252
SWIDTH 666 0
DWIDTH 8 0
BBX 8 13 0 -2
BITMAP
00
24
24
00
00
44
44
44
44
44
3a
00
00
ENDCHAR
STARTCHAR 00fd
ENCODING 253
SWIDTH 666 0
DWIDTH 8 0
BBX 8 13 0 -2
BITMAP
00
08
10
00
00
42
42
42
46
3a
02
42
3c
ENDCHAR
STARTCHAR 00fe
ENCODING 254
SWIDTH 666 0
DWIDTH 8 0
BBX 8 13 0 -2
BITMAP
00
00
00
40
40
5c
62
42
42
62
5c
40
40
ENDCHAR
STARTCHAR 00ff
ENCODING 255
SWIDTH 666 0
DWIDTH 8 0
BBX 8 13 0 -2
BITMAP
00
24
24
00
00
42
42
42
46
3a
02
42
3c
ENDCHAR
ENDFONT
